<svg width="191" height="124" viewBox="0 0 191 124" fill="none" xmlns="http://www.w3.org/2000/svg">
<path d="M54.3409 70V17.6364H72.0341C76.142 17.6364 79.5 18.3778 82.108 19.8608C84.733 21.3267 86.6761 23.3125 87.9375 25.8182C89.1989 28.3239 89.8295 31.1193 89.8295 34.2045C89.8295 37.2898 89.1989 40.0937 87.9375 42.6165C86.6932 45.1392 84.767 47.1506 82.1591 48.6506C79.5511 50.1335 76.2102 50.875 72.1364 50.875H59.4545V45.25H71.9318C74.7443 45.25 77.0028 44.7642 78.7074 43.7926C80.4119 42.821 81.6477 41.5085 82.4148 39.8551C83.1989 38.1847 83.5909 36.3011 83.5909 34.2045C83.5909 32.108 83.1989 30.233 82.4148 28.5795C81.6477 26.9261 80.4034 25.6307 78.6818 24.6932C76.9602 23.7386 74.6761 23.2614 71.8295 23.2614H60.6818V70H54.3409Z" fill="black"/>
<path d="M102.489 50.6364L118.034 94.7159H118.648L134.193 50.6364H140.841L121.614 103H115.068L95.8409 50.6364H102.489Z" fill="black"/>
<path d="M14.5888 118V106.364H18.5206C19.4335 106.364 20.1797 106.528 20.7592 106.858C21.3426 107.184 21.7744 107.625 22.0547 108.182C22.335 108.739 22.4751 109.36 22.4751 110.045C22.4751 110.731 22.335 111.354 22.0547 111.915C21.7782 112.475 21.3501 112.922 20.7706 113.256C20.1911 113.585 19.4486 113.75 18.5433 113.75H15.7251V112.5H18.4979C19.1229 112.5 19.6248 112.392 20.0036 112.176C20.3823 111.96 20.657 111.669 20.8274 111.301C21.0017 110.93 21.0888 110.511 21.0888 110.045C21.0888 109.58 21.0017 109.163 20.8274 108.795C20.657 108.428 20.3804 108.14 19.9979 107.932C19.6153 107.72 19.1077 107.614 18.4751 107.614H15.9979V118H14.5888ZM24.5632 118V109.273H25.8587V110.591H25.9496C26.1087 110.159 26.3965 109.809 26.8132 109.54C27.2299 109.271 27.6996 109.136 28.2223 109.136C28.3208 109.136 28.4439 109.138 28.5916 109.142C28.7393 109.146 28.8511 109.152 28.9268 109.159V110.523C28.8814 110.511 28.7772 110.494 28.6143 110.472C28.4553 110.445 28.2867 110.432 28.1087 110.432C27.6844 110.432 27.3056 110.521 26.9723 110.699C26.6428 110.873 26.3814 111.116 26.1882 111.426C25.9988 111.733 25.9041 112.083 25.9041 112.477V118H24.5632ZM33.9098 118.182C33.0689 118.182 32.3435 117.996 31.7337 117.625C31.1276 117.25 30.6598 116.727 30.3303 116.057C30.0045 115.383 29.8416 114.598 29.8416 113.705C29.8416 112.811 30.0045 112.023 30.3303 111.341C30.6598 110.655 31.1181 110.121 31.7053 109.739C32.2962 109.352 32.9856 109.159 33.7734 109.159C34.228 109.159 34.6768 109.235 35.12 109.386C35.5632 109.538 35.9666 109.784 36.3303 110.125C36.6939 110.462 36.9837 110.909 37.1996 111.466C37.4155 112.023 37.5234 112.708 37.5234 113.523V114.091H30.7962V112.932H36.1598C36.1598 112.439 36.0613 112 35.8643 111.614C35.6712 111.227 35.3946 110.922 35.0348 110.699C34.6787 110.475 34.2583 110.364 33.7734 110.364C33.2393 110.364 32.7772 110.496 32.3871 110.761C32.0007 111.023 31.7034 111.364 31.495 111.784C31.2867 112.205 31.1825 112.655 31.1825 113.136V113.909C31.1825 114.568 31.2962 115.127 31.5234 115.585C31.7545 116.04 32.0746 116.386 32.4837 116.625C32.8928 116.86 33.3681 116.977 33.9098 116.977C34.2621 116.977 34.5803 116.928 34.8643 116.83C35.1522 116.727 35.4003 116.576 35.6087 116.375C35.817 116.17 35.978 115.917 36.0916 115.614L37.3871 115.977C37.2507 116.417 37.0215 116.803 36.6996 117.136C36.3776 117.466 35.9799 117.723 35.5064 117.909C35.0329 118.091 34.5007 118.182 33.9098 118.182ZM39.5632 118V109.273H40.8587V110.636H40.9723C41.1541 110.17 41.4477 109.809 41.853 109.551C42.2583 109.29 42.745 109.159 43.3132 109.159C43.889 109.159 44.3681 109.29 44.7507 109.551C45.1371 109.809 45.4382 110.17 45.6541 110.636H45.745C45.9685 110.186 46.3037 109.828 46.7507 109.562C47.1977 109.294 47.7337 109.159 48.3587 109.159C49.139 109.159 49.7772 109.403 50.2734 109.892C50.7697 110.377 51.0178 111.133 51.0178 112.159V118H49.6768V112.159C49.6768 111.515 49.5007 111.055 49.1484 110.778C48.7962 110.502 48.3814 110.364 47.9041 110.364C47.2905 110.364 46.8151 110.549 46.478 110.92C46.1409 111.288 45.9723 111.754 45.9723 112.318V118H44.6087V112.023C44.6087 111.527 44.4477 111.127 44.1257 110.824C43.8037 110.517 43.389 110.364 42.8814 110.364C42.5329 110.364 42.2071 110.456 41.9041 110.642C41.6049 110.828 41.3625 111.085 41.1768 111.415C40.995 111.741 40.9041 112.117 40.9041 112.545V118H39.5632ZM53.4695 118V109.273H54.8104V118H53.4695ZM54.1513 107.818C53.8899 107.818 53.6645 107.729 53.4751 107.551C53.2895 107.373 53.1967 107.159 53.1967 106.909C53.1967 106.659 53.2895 106.445 53.4751 106.267C53.6645 106.089 53.8899 106 54.1513 106C54.4126 106 54.6361 106.089 54.8217 106.267C55.0111 106.445 55.1058 106.659 55.1058 106.909C55.1058 107.159 55.0111 107.373 54.8217 107.551C54.6361 107.729 54.4126 107.818 54.1513 107.818ZM62.7663 114.432V109.273H64.1072V118H62.7663V116.523H62.6754C62.4709 116.966 62.1527 117.343 61.7209 117.653C61.2891 117.96 60.7436 118.114 60.0845 118.114C59.5391 118.114 59.0542 117.994 58.63 117.756C58.2057 117.513 57.8724 117.15 57.63 116.665C57.3875 116.176 57.2663 115.561 57.2663 114.818V109.273H58.6072V114.727C58.6072 115.364 58.7853 115.871 59.1413 116.25C59.5012 116.629 59.9595 116.818 60.5163 116.818C60.8497 116.818 61.1887 116.733 61.5334 116.562C61.8819 116.392 62.1735 116.131 62.4084 115.778C62.647 115.426 62.7663 114.977 62.7663 114.432ZM66.5632 118V109.273H67.8587V110.636H67.9723C68.1541 110.17 68.4477 109.809 68.853 109.551C69.2583 109.29 69.745 109.159 70.3132 109.159C70.889 109.159 71.3681 109.29 71.7507 109.551C72.1371 109.809 72.4382 110.17 72.6541 110.636H72.745C72.9685 110.186 73.3037 109.828 73.7507 109.562C74.1977 109.294 74.7337 109.159 75.3587 109.159C76.139 109.159 76.7772 109.403 77.2734 109.892C77.7697 110.377 78.0178 111.133 78.0178 112.159V118H76.6768V112.159C76.6768 111.515 76.5007 111.055 76.1484 110.778C75.7962 110.502 75.3814 110.364 74.9041 110.364C74.2905 110.364 73.8151 110.549 73.478 110.92C73.1409 111.288 72.9723 111.754 72.9723 112.318V118H71.6087V112.023C71.6087 111.527 71.4477 111.127 71.1257 110.824C70.8037 110.517 70.389 110.364 69.8814 110.364C69.5329 110.364 69.2071 110.456 68.9041 110.642C68.6049 110.828 68.3625 111.085 68.1768 111.415C67.995 111.741 67.9041 112.117 67.9041 112.545V118H66.5632ZM85.6286 106.364L89.0831 116.159H89.2195L92.674 106.364H94.1513L89.8786 118H88.424L84.1513 106.364H85.6286ZM98.5149 118.182C97.727 118.182 97.0357 117.994 96.4411 117.619C95.8501 117.244 95.388 116.72 95.0547 116.045C94.7251 115.371 94.5604 114.583 94.5604 113.682C94.5604 112.773 94.7251 111.979 95.0547 111.301C95.388 110.623 95.8501 110.097 96.4411 109.722C97.0357 109.347 97.727 109.159 98.5149 109.159C99.3028 109.159 99.9922 109.347 100.583 109.722C101.178 110.097 101.64 110.623 101.969 111.301C102.303 111.979 102.469 112.773 102.469 113.682C102.469 114.583 102.303 115.371 101.969 116.045C101.64 116.72 101.178 117.244 100.583 117.619C99.9922 117.994 99.3028 118.182 98.5149 118.182ZM98.5149 116.977C99.1134 116.977 99.6058 116.824 99.9922 116.517C100.379 116.21 100.665 115.807 100.85 115.307C101.036 114.807 101.129 114.265 101.129 113.682C101.129 113.098 101.036 112.555 100.85 112.051C100.665 111.547 100.379 111.14 99.9922 110.83C99.6058 110.519 99.1134 110.364 98.5149 110.364C97.9164 110.364 97.424 110.519 97.0376 110.83C96.6513 111.14 96.3653 111.547 96.1797 112.051C95.9941 112.555 95.9013 113.098 95.9013 113.682C95.9013 114.265 95.9941 114.807 96.1797 115.307C96.3653 115.807 96.6513 116.21 97.0376 116.517C97.424 116.824 97.9164 116.977 98.5149 116.977ZM105.857 106.364V118H104.516V106.364H105.857ZM109.563 114.818L109.54 113.159H109.813L113.631 109.273H115.29L111.222 113.386H111.109L109.563 114.818ZM108.313 118V106.364H109.654V118H108.313ZM113.859 118L110.45 113.682L111.404 112.75L115.563 118H113.859ZM123.198 111.227L121.994 111.568C121.918 111.367 121.806 111.172 121.658 110.983C121.514 110.79 121.317 110.631 121.067 110.506C120.817 110.381 120.497 110.318 120.107 110.318C119.573 110.318 119.128 110.441 118.772 110.688C118.42 110.93 118.244 111.239 118.244 111.614C118.244 111.947 118.365 112.21 118.607 112.403C118.85 112.597 119.228 112.758 119.744 112.886L121.039 113.205C121.819 113.394 122.401 113.684 122.783 114.074C123.166 114.46 123.357 114.958 123.357 115.568C123.357 116.068 123.213 116.515 122.925 116.909C122.641 117.303 122.244 117.614 121.732 117.841C121.221 118.068 120.626 118.182 119.948 118.182C119.058 118.182 118.321 117.989 117.738 117.602C117.155 117.216 116.785 116.652 116.63 115.909L117.903 115.591C118.024 116.061 118.253 116.413 118.59 116.648C118.931 116.883 119.376 117 119.925 117C120.55 117 121.047 116.867 121.414 116.602C121.785 116.333 121.971 116.011 121.971 115.636C121.971 115.333 121.865 115.08 121.653 114.875C121.441 114.667 121.115 114.511 120.675 114.409L119.221 114.068C118.422 113.879 117.835 113.585 117.46 113.188C117.088 112.786 116.903 112.284 116.903 111.682C116.903 111.189 117.041 110.754 117.317 110.375C117.598 109.996 117.978 109.699 118.46 109.483C118.944 109.267 119.494 109.159 120.107 109.159C120.971 109.159 121.649 109.348 122.141 109.727C122.638 110.106 122.99 110.606 123.198 111.227ZM127.353 118L124.694 109.273H126.103L127.989 115.955H128.08L129.944 109.273H131.376L133.217 115.932H133.308L135.194 109.273H136.603L133.944 118H132.626L130.717 111.295H130.58L128.671 118H127.353ZM140.944 118.205C140.391 118.205 139.889 118.1 139.438 117.892C138.987 117.68 138.629 117.375 138.364 116.977C138.099 116.576 137.967 116.091 137.967 115.523C137.967 115.023 138.065 114.617 138.262 114.307C138.459 113.992 138.722 113.746 139.052 113.568C139.381 113.39 139.745 113.258 140.143 113.17C140.544 113.08 140.948 113.008 141.353 112.955C141.883 112.886 142.313 112.835 142.643 112.801C142.976 112.763 143.219 112.701 143.37 112.614C143.525 112.527 143.603 112.375 143.603 112.159V112.114C143.603 111.553 143.45 111.117 143.143 110.807C142.84 110.496 142.379 110.341 141.762 110.341C141.122 110.341 140.62 110.481 140.256 110.761C139.893 111.042 139.637 111.341 139.489 111.659L138.217 111.205C138.444 110.674 138.747 110.261 139.126 109.966C139.508 109.667 139.925 109.458 140.376 109.341C140.83 109.22 141.277 109.159 141.717 109.159C141.997 109.159 142.319 109.193 142.683 109.261C143.05 109.326 143.404 109.46 143.745 109.665C144.09 109.869 144.376 110.178 144.603 110.591C144.83 111.004 144.944 111.557 144.944 112.25V118H143.603V116.818H143.535C143.444 117.008 143.292 117.21 143.08 117.426C142.868 117.642 142.586 117.826 142.234 117.977C141.881 118.129 141.451 118.205 140.944 118.205ZM141.148 117C141.679 117 142.126 116.896 142.489 116.688C142.857 116.479 143.133 116.21 143.319 115.881C143.508 115.551 143.603 115.205 143.603 114.841V113.614C143.546 113.682 143.421 113.744 143.228 113.801C143.039 113.854 142.819 113.902 142.569 113.943C142.323 113.981 142.082 114.015 141.847 114.045C141.616 114.072 141.429 114.095 141.285 114.114C140.936 114.159 140.611 114.233 140.308 114.335C140.008 114.434 139.766 114.583 139.58 114.784C139.398 114.981 139.308 115.25 139.308 115.591C139.308 116.057 139.48 116.409 139.825 116.648C140.173 116.883 140.614 117 141.148 117ZM150.914 121.455C150.266 121.455 149.71 121.371 149.244 121.205C148.778 121.042 148.389 120.826 148.079 120.557C147.772 120.292 147.528 120.008 147.346 119.705L148.414 118.955C148.535 119.114 148.689 119.295 148.874 119.5C149.06 119.708 149.314 119.888 149.636 120.04C149.961 120.195 150.388 120.273 150.914 120.273C151.619 120.273 152.2 120.102 152.658 119.761C153.117 119.42 153.346 118.886 153.346 118.159V116.386H153.232C153.134 116.545 152.994 116.742 152.812 116.977C152.634 117.208 152.376 117.415 152.039 117.597C151.706 117.775 151.255 117.864 150.687 117.864C149.982 117.864 149.35 117.697 148.789 117.364C148.232 117.03 147.791 116.545 147.465 115.909C147.143 115.273 146.982 114.5 146.982 113.591C146.982 112.697 147.139 111.919 147.454 111.256C147.768 110.589 148.206 110.074 148.766 109.71C149.327 109.343 149.975 109.159 150.71 109.159C151.278 109.159 151.728 109.254 152.062 109.443C152.399 109.629 152.656 109.841 152.835 110.08C153.016 110.314 153.156 110.508 153.255 110.659H153.391V109.273H154.687V118.25C154.687 119 154.516 119.61 154.175 120.08C153.838 120.553 153.384 120.9 152.812 121.119C152.244 121.343 151.611 121.455 150.914 121.455ZM150.869 116.659C151.406 116.659 151.861 116.536 152.232 116.29C152.603 116.044 152.886 115.689 153.079 115.227C153.272 114.765 153.369 114.212 153.369 113.568C153.369 112.939 153.274 112.384 153.085 111.903C152.895 111.422 152.615 111.045 152.244 110.773C151.872 110.5 151.414 110.364 150.869 110.364C150.3 110.364 149.827 110.508 149.448 110.795C149.073 111.083 148.791 111.47 148.602 111.955C148.416 112.439 148.323 112.977 148.323 113.568C148.323 114.174 148.418 114.71 148.607 115.176C148.8 115.638 149.085 116.002 149.46 116.267C149.838 116.528 150.308 116.659 150.869 116.659ZM160.687 118.182C159.899 118.182 159.208 117.994 158.613 117.619C158.022 117.244 157.56 116.72 157.227 116.045C156.897 115.371 156.732 114.583 156.732 113.682C156.732 112.773 156.897 111.979 157.227 111.301C157.56 110.623 158.022 110.097 158.613 109.722C159.208 109.347 159.899 109.159 160.687 109.159C161.475 109.159 162.164 109.347 162.755 109.722C163.35 110.097 163.812 110.623 164.141 111.301C164.475 111.979 164.641 112.773 164.641 113.682C164.641 114.583 164.475 115.371 164.141 116.045C163.812 116.72 163.35 117.244 162.755 117.619C162.164 117.994 161.475 118.182 160.687 118.182ZM160.687 116.977C161.285 116.977 161.778 116.824 162.164 116.517C162.55 116.21 162.836 115.807 163.022 115.307C163.208 114.807 163.3 114.265 163.3 113.682C163.3 113.098 163.208 112.555 163.022 112.051C162.836 111.547 162.55 111.14 162.164 110.83C161.778 110.519 161.285 110.364 160.687 110.364C160.088 110.364 159.596 110.519 159.21 110.83C158.823 111.14 158.537 111.547 158.352 112.051C158.166 112.555 158.073 113.098 158.073 113.682C158.073 114.265 158.166 114.807 158.352 115.307C158.537 115.807 158.823 116.21 159.21 116.517C159.596 116.824 160.088 116.977 160.687 116.977ZM168.029 112.75V118H166.688V109.273H167.984V110.636H168.097C168.302 110.193 168.612 109.837 169.029 109.568C169.446 109.295 169.984 109.159 170.643 109.159C171.234 109.159 171.751 109.28 172.194 109.523C172.637 109.761 172.982 110.125 173.228 110.614C173.474 111.098 173.597 111.712 173.597 112.455V118H172.256V112.545C172.256 111.86 172.078 111.326 171.722 110.943C171.366 110.557 170.878 110.364 170.256 110.364C169.828 110.364 169.446 110.456 169.109 110.642C168.775 110.828 168.512 111.098 168.319 111.455C168.126 111.811 168.029 112.242 168.029 112.75Z" fill="black"/>
</svg>
