<svg width="191" height="124" viewBox="0 0 191 124" fill="none" xmlns="http://www.w3.org/2000/svg">
<path d="M54.3409 70V17.6364H72.0341C76.142 17.6364 79.5 18.3778 82.108 19.8608C84.733 21.3267 86.6761 23.3125 87.9375 25.8182C89.1989 28.3239 89.8295 31.1193 89.8295 34.2045C89.8295 37.2898 89.1989 40.0937 87.9375 42.6165C86.6932 45.1392 84.767 47.1506 82.1591 48.6506C79.5511 50.1335 76.2102 50.875 72.1364 50.875H59.4545V45.25H71.9318C74.7443 45.25 77.0028 44.7642 78.7074 43.7926C80.4119 42.821 81.6477 41.5085 82.4148 39.8551C83.1989 38.1847 83.5909 36.3011 83.5909 34.2045C83.5909 32.108 83.1989 30.233 82.4148 28.5795C81.6477 26.9261 80.4034 25.6307 78.6818 24.6932C76.9602 23.7386 74.6761 23.2614 71.8295 23.2614H60.6818V70H54.3409Z" fill="black"/>
<path d="M102.489 50.6364L118.034 94.7159H118.648L134.193 50.6364H140.841L121.614 103H115.068L95.8409 50.6364H102.489Z" fill="black"/>
<path d="M14.706 118V106.364H18.6378C19.5507 106.364 20.2969 106.528 20.8764 106.858C21.4598 107.184 21.8916 107.625 22.1719 108.182C22.4522 108.739 22.5923 109.36 22.5923 110.045C22.5923 110.731 22.4522 111.354 22.1719 111.915C21.8954 112.475 21.4673 112.922 20.8878 113.256C20.3082 113.585 19.5658 113.75 18.6605 113.75H15.8423V112.5H18.6151C19.2401 112.5 19.742 112.392 20.1207 112.176C20.4995 111.96 20.7741 111.669 20.9446 111.301C21.1188 110.93 21.206 110.511 21.206 110.045C21.206 109.58 21.1188 109.163 20.9446 108.795C20.7741 108.428 20.4976 108.14 20.1151 107.932C19.7325 107.72 19.2249 107.614 18.5923 107.614H16.1151V118H14.706ZM24.6804 118V109.273H25.9759V110.591H26.0668C26.2259 110.159 26.5137 109.809 26.9304 109.54C27.3471 109.271 27.8168 109.136 28.3395 109.136C28.438 109.136 28.5611 109.138 28.7088 109.142C28.8565 109.146 28.9683 109.152 29.044 109.159V110.523C28.9986 110.511 28.8944 110.494 28.7315 110.472C28.5724 110.445 28.4039 110.432 28.2259 110.432C27.8016 110.432 27.4228 110.521 27.0895 110.699C26.7599 110.873 26.4986 111.116 26.3054 111.426C26.116 111.733 26.0213 112.083 26.0213 112.477V118H24.6804ZM34.027 118.182C33.1861 118.182 32.4607 117.996 31.8509 117.625C31.2448 117.25 30.777 116.727 30.4474 116.057C30.1217 115.383 29.9588 114.598 29.9588 113.705C29.9588 112.811 30.1217 112.023 30.4474 111.341C30.777 110.655 31.2353 110.121 31.8224 109.739C32.4134 109.352 33.1027 109.159 33.8906 109.159C34.3452 109.159 34.794 109.235 35.2372 109.386C35.6804 109.538 36.0838 109.784 36.4474 110.125C36.8111 110.462 37.1009 110.909 37.3168 111.466C37.5327 112.023 37.6406 112.708 37.6406 113.523V114.091H30.9134V112.932H36.277C36.277 112.439 36.1785 112 35.9815 111.614C35.7884 111.227 35.5118 110.922 35.152 110.699C34.7959 110.475 34.3755 110.364 33.8906 110.364C33.3565 110.364 32.8944 110.496 32.5043 110.761C32.1179 111.023 31.8205 111.364 31.6122 111.784C31.4039 112.205 31.2997 112.655 31.2997 113.136V113.909C31.2997 114.568 31.4134 115.127 31.6406 115.585C31.8717 116.04 32.1918 116.386 32.6009 116.625C33.0099 116.86 33.4853 116.977 34.027 116.977C34.3793 116.977 34.6974 116.928 34.9815 116.83C35.2694 116.727 35.5175 116.576 35.7259 116.375C35.9342 116.17 36.0952 115.917 36.2088 115.614L37.5043 115.977C37.3679 116.417 37.1387 116.803 36.8168 117.136C36.4948 117.466 36.0971 117.723 35.6236 117.909C35.1501 118.091 34.6179 118.182 34.027 118.182ZM39.6804 118V109.273H40.9759V110.636H41.0895C41.2713 110.17 41.5649 109.809 41.9702 109.551C42.3755 109.29 42.8622 109.159 43.4304 109.159C44.0062 109.159 44.4853 109.29 44.8679 109.551C45.2543 109.809 45.5554 110.17 45.7713 110.636H45.8622C46.0857 110.186 46.4209 109.828 46.8679 109.562C47.3149 109.294 47.8509 109.159 48.4759 109.159C49.2562 109.159 49.8944 109.403 50.3906 109.892C50.8868 110.377 51.1349 111.133 51.1349 112.159V118H49.794V112.159C49.794 111.515 49.6179 111.055 49.2656 110.778C48.9134 110.502 48.4986 110.364 48.0213 110.364C47.4077 110.364 46.9323 110.549 46.5952 110.92C46.258 111.288 46.0895 111.754 46.0895 112.318V118H44.7259V112.023C44.7259 111.527 44.5649 111.127 44.2429 110.824C43.9209 110.517 43.5062 110.364 42.9986 110.364C42.6501 110.364 42.3243 110.456 42.0213 110.642C41.7221 110.828 41.4796 111.085 41.294 111.415C41.1122 111.741 41.0213 112.117 41.0213 112.545V118H39.6804ZM53.5866 118V109.273H54.9276V118H53.5866ZM54.2685 107.818C54.0071 107.818 53.7817 107.729 53.5923 107.551C53.4067 107.373 53.3139 107.159 53.3139 106.909C53.3139 106.659 53.4067 106.445 53.5923 106.267C53.7817 106.089 54.0071 106 54.2685 106C54.5298 106 54.7533 106.089 54.9389 106.267C55.1283 106.445 55.223 106.659 55.223 106.909C55.223 107.159 55.1283 107.373 54.9389 107.551C54.7533 107.729 54.5298 107.818 54.2685 107.818ZM62.8835 114.432V109.273H64.2244V118H62.8835V116.523H62.7926C62.5881 116.966 62.2699 117.343 61.8381 117.653C61.4063 117.96 60.8608 118.114 60.2017 118.114C59.6562 118.114 59.1714 117.994 58.7472 117.756C58.3229 117.513 57.9896 117.15 57.7472 116.665C57.5047 116.176 57.3835 115.561 57.3835 114.818V109.273H58.7244V114.727C58.7244 115.364 58.9025 115.871 59.2585 116.25C59.6184 116.629 60.0767 116.818 60.6335 116.818C60.9669 116.818 61.3059 116.733 61.6506 116.562C61.9991 116.392 62.2907 116.131 62.5256 115.778C62.7642 115.426 62.8835 114.977 62.8835 114.432ZM66.6804 118V109.273H67.9759V110.636H68.0895C68.2713 110.17 68.5649 109.809 68.9702 109.551C69.3755 109.29 69.8622 109.159 70.4304 109.159C71.0062 109.159 71.4853 109.29 71.8679 109.551C72.2543 109.809 72.5554 110.17 72.7713 110.636H72.8622C73.0857 110.186 73.4209 109.828 73.8679 109.562C74.3149 109.294 74.8509 109.159 75.4759 109.159C76.2562 109.159 76.8944 109.403 77.3906 109.892C77.8868 110.377 78.1349 111.133 78.1349 112.159V118H76.794V112.159C76.794 111.515 76.6179 111.055 76.2656 110.778C75.9134 110.502 75.4986 110.364 75.0213 110.364C74.4077 110.364 73.9323 110.549 73.5952 110.92C73.258 111.288 73.0895 111.754 73.0895 112.318V118H71.7259V112.023C71.7259 111.527 71.5649 111.127 71.2429 110.824C70.9209 110.517 70.5062 110.364 69.9986 110.364C69.6501 110.364 69.3243 110.456 69.0213 110.642C68.7221 110.828 68.4796 111.085 68.294 111.415C68.1122 111.741 68.0213 112.117 68.0213 112.545V118H66.6804ZM85.7457 106.364L89.2003 116.159H89.3366L92.7912 106.364H94.2685L89.9957 118H88.5412L84.2685 106.364H85.7457ZM98.6321 118.182C97.8442 118.182 97.1529 117.994 96.5582 117.619C95.9673 117.244 95.5052 116.72 95.1719 116.045C94.8423 115.371 94.6776 114.583 94.6776 113.682C94.6776 112.773 94.8423 111.979 95.1719 111.301C95.5052 110.623 95.9673 110.097 96.5582 109.722C97.1529 109.347 97.8442 109.159 98.6321 109.159C99.42 109.159 100.109 109.347 100.7 109.722C101.295 110.097 101.757 110.623 102.087 111.301C102.42 111.979 102.587 112.773 102.587 113.682C102.587 114.583 102.42 115.371 102.087 116.045C101.757 116.72 101.295 117.244 100.7 117.619C100.109 117.994 99.42 118.182 98.6321 118.182ZM98.6321 116.977C99.2306 116.977 99.723 116.824 100.109 116.517C100.496 116.21 100.782 115.807 100.967 115.307C101.153 114.807 101.246 114.265 101.246 113.682C101.246 113.098 101.153 112.555 100.967 112.051C100.782 111.547 100.496 111.14 100.109 110.83C99.723 110.519 99.2306 110.364 98.6321 110.364C98.0336 110.364 97.5412 110.519 97.1548 110.83C96.7685 111.14 96.4825 111.547 96.2969 112.051C96.1113 112.555 96.0185 113.098 96.0185 113.682C96.0185 114.265 96.1113 114.807 96.2969 115.307C96.4825 115.807 96.7685 116.21 97.1548 116.517C97.5412 116.824 98.0336 116.977 98.6321 116.977ZM105.974 106.364V118H104.634V106.364H105.974ZM109.68 114.818L109.658 113.159H109.93L113.749 109.273H115.408L111.339 113.386H111.226L109.68 114.818ZM108.43 118V106.364H109.771V118H108.43ZM113.976 118L110.567 113.682L111.521 112.75L115.68 118H113.976ZM123.315 111.227L122.111 111.568C122.035 111.367 121.923 111.172 121.776 110.983C121.632 110.79 121.435 110.631 121.185 110.506C120.935 110.381 120.615 110.318 120.224 110.318C119.69 110.318 119.245 110.441 118.889 110.688C118.537 110.93 118.361 111.239 118.361 111.614C118.361 111.947 118.482 112.21 118.724 112.403C118.967 112.597 119.346 112.758 119.861 112.886L121.156 113.205C121.937 113.394 122.518 113.684 122.901 114.074C123.283 114.46 123.474 114.958 123.474 115.568C123.474 116.068 123.33 116.515 123.043 116.909C122.759 117.303 122.361 117.614 121.849 117.841C121.338 118.068 120.743 118.182 120.065 118.182C119.175 118.182 118.438 117.989 117.855 117.602C117.272 117.216 116.902 116.652 116.747 115.909L118.02 115.591C118.141 116.061 118.37 116.413 118.707 116.648C119.048 116.883 119.493 117 120.043 117C120.668 117 121.164 116.867 121.531 116.602C121.902 116.333 122.088 116.011 122.088 115.636C122.088 115.333 121.982 115.08 121.77 114.875C121.558 114.667 121.232 114.511 120.793 114.409L119.338 114.068C118.539 113.879 117.952 113.585 117.577 113.188C117.205 112.786 117.02 112.284 117.02 111.682C117.02 111.189 117.158 110.754 117.435 110.375C117.715 109.996 118.096 109.699 118.577 109.483C119.062 109.267 119.611 109.159 120.224 109.159C121.088 109.159 121.766 109.348 122.259 109.727C122.755 110.106 123.107 110.606 123.315 111.227ZM127.47 118L124.811 109.273H126.22L128.107 115.955H128.197L130.061 109.273H131.493L133.334 115.932H133.425L135.311 109.273H136.72L134.061 118H132.743L130.834 111.295H130.697L128.788 118H127.47ZM141.061 118.205C140.508 118.205 140.006 118.1 139.555 117.892C139.105 117.68 138.747 117.375 138.482 116.977C138.216 116.576 138.084 116.091 138.084 115.523C138.084 115.023 138.182 114.617 138.379 114.307C138.576 113.992 138.839 113.746 139.169 113.568C139.499 113.39 139.862 113.258 140.26 113.17C140.661 113.08 141.065 113.008 141.47 112.955C142 112.886 142.43 112.835 142.76 112.801C143.093 112.763 143.336 112.701 143.487 112.614C143.643 112.527 143.72 112.375 143.72 112.159V112.114C143.72 111.553 143.567 111.117 143.26 110.807C142.957 110.496 142.497 110.341 141.879 110.341C141.239 110.341 140.737 110.481 140.374 110.761C140.01 111.042 139.754 111.341 139.607 111.659L138.334 111.205C138.561 110.674 138.864 110.261 139.243 109.966C139.625 109.667 140.042 109.458 140.493 109.341C140.947 109.22 141.394 109.159 141.834 109.159C142.114 109.159 142.436 109.193 142.8 109.261C143.167 109.326 143.521 109.46 143.862 109.665C144.207 109.869 144.493 110.178 144.72 110.591C144.947 111.004 145.061 111.557 145.061 112.25V118H143.72V116.818H143.652C143.561 117.008 143.41 117.21 143.197 117.426C142.985 117.642 142.703 117.826 142.351 117.977C141.999 118.129 141.569 118.205 141.061 118.205ZM141.266 117C141.796 117 142.243 116.896 142.607 116.688C142.974 116.479 143.25 116.21 143.436 115.881C143.625 115.551 143.72 115.205 143.72 114.841V113.614C143.663 113.682 143.538 113.744 143.345 113.801C143.156 113.854 142.936 113.902 142.686 113.943C142.44 113.981 142.199 114.015 141.964 114.045C141.733 114.072 141.546 114.095 141.402 114.114C141.054 114.159 140.728 114.233 140.425 114.335C140.125 114.434 139.883 114.583 139.697 114.784C139.516 114.981 139.425 115.25 139.425 115.591C139.425 116.057 139.597 116.409 139.942 116.648C140.29 116.883 140.732 117 141.266 117ZM151.031 121.455C150.384 121.455 149.827 121.371 149.361 121.205C148.895 121.042 148.507 120.826 148.196 120.557C147.889 120.292 147.645 120.008 147.463 119.705L148.531 118.955C148.652 119.114 148.806 119.295 148.991 119.5C149.177 119.708 149.431 119.888 149.753 120.04C150.079 120.195 150.505 120.273 151.031 120.273C151.736 120.273 152.317 120.102 152.776 119.761C153.234 119.42 153.463 118.886 153.463 118.159V116.386H153.349C153.251 116.545 153.111 116.742 152.929 116.977C152.751 117.208 152.493 117.415 152.156 117.597C151.823 117.775 151.372 117.864 150.804 117.864C150.099 117.864 149.467 117.697 148.906 117.364C148.349 117.03 147.908 116.545 147.582 115.909C147.26 115.273 147.099 114.5 147.099 113.591C147.099 112.697 147.257 111.919 147.571 111.256C147.885 110.589 148.323 110.074 148.884 109.71C149.444 109.343 150.092 109.159 150.827 109.159C151.395 109.159 151.846 109.254 152.179 109.443C152.516 109.629 152.774 109.841 152.952 110.08C153.134 110.314 153.274 110.508 153.372 110.659H153.509V109.273H154.804V118.25C154.804 119 154.634 119.61 154.293 120.08C153.955 120.553 153.501 120.9 152.929 121.119C152.361 121.343 151.728 121.455 151.031 121.455ZM150.986 116.659C151.524 116.659 151.978 116.536 152.349 116.29C152.721 116.044 153.003 115.689 153.196 115.227C153.389 114.765 153.486 114.212 153.486 113.568C153.486 112.939 153.391 112.384 153.202 111.903C153.012 111.422 152.732 111.045 152.361 110.773C151.99 110.5 151.531 110.364 150.986 110.364C150.418 110.364 149.944 110.508 149.565 110.795C149.19 111.083 148.908 111.47 148.719 111.955C148.533 112.439 148.44 112.977 148.44 113.568C148.44 114.174 148.535 114.71 148.724 115.176C148.918 115.638 149.202 116.002 149.577 116.267C149.955 116.528 150.425 116.659 150.986 116.659ZM160.918 118.182C160.077 118.182 159.351 117.996 158.741 117.625C158.135 117.25 157.668 116.727 157.338 116.057C157.012 115.383 156.849 114.598 156.849 113.705C156.849 112.811 157.012 112.023 157.338 111.341C157.668 110.655 158.126 110.121 158.713 109.739C159.304 109.352 159.993 109.159 160.781 109.159C161.236 109.159 161.685 109.235 162.128 109.386C162.571 109.538 162.974 109.784 163.338 110.125C163.702 110.462 163.991 110.909 164.207 111.466C164.423 112.023 164.531 112.708 164.531 113.523V114.091H157.804V112.932H163.168C163.168 112.439 163.069 112 162.872 111.614C162.679 111.227 162.402 110.922 162.043 110.699C161.687 110.475 161.266 110.364 160.781 110.364C160.247 110.364 159.785 110.496 159.395 110.761C159.009 111.023 158.711 111.364 158.503 111.784C158.295 112.205 158.19 112.655 158.19 113.136V113.909C158.19 114.568 158.304 115.127 158.531 115.585C158.762 116.04 159.082 116.386 159.491 116.625C159.901 116.86 160.376 116.977 160.918 116.977C161.27 116.977 161.588 116.928 161.872 116.83C162.16 116.727 162.408 116.576 162.616 116.375C162.825 116.17 162.986 115.917 163.099 115.614L164.395 115.977C164.259 116.417 164.029 116.803 163.707 117.136C163.385 117.466 162.988 117.723 162.514 117.909C162.041 118.091 161.509 118.182 160.918 118.182ZM167.912 112.75V118H166.571V109.273H167.866V110.636H167.98C168.185 110.193 168.495 109.837 168.912 109.568C169.329 109.295 169.866 109.159 170.526 109.159C171.116 109.159 171.634 109.28 172.077 109.523C172.52 109.761 172.865 110.125 173.111 110.614C173.357 111.098 173.48 111.712 173.48 112.455V118H172.139V112.545C172.139 111.86 171.961 111.326 171.605 110.943C171.249 110.557 170.76 110.364 170.139 110.364C169.711 110.364 169.329 110.456 168.991 110.642C168.658 110.828 168.395 111.098 168.202 111.455C168.009 111.811 167.912 112.242 167.912 112.75Z" fill="black"/>
</svg>
